<?xml version="1.0" encoding="UTF-8"?>
<svg version="1.1" xmlns="http://www.w3.org/2000/svg" width="1920" height="1080">
<path d="M0 0 C633.6 0 1267.2 0 1920 0 C1920 356.4 1920 712.8 1920 1080 C1286.4 1080 652.8 1080 0 1080 C0 723.6 0 367.2 0 0 Z " fill="#FEFEFE" transform="translate(0,0)"/>
<path d="M0 0 C1.4025 -0.020625 2.805 -0.04125 4.25 -0.0625 C5.43335938 -0.07990234 5.43335938 -0.07990234 6.640625 -0.09765625 C9 0 9 0 11.13671875 0.54296875 C13.11630144 1.18049019 13.11630144 1.18049019 15.5625 0.375 C18 0 18 0 19.640625 1.12109375 C21.5194504 3.71797598 21.29931895 5.51929641 21.1875 8.6875 C21.16042969 9.68136719 21.13335938 10.67523437 21.10546875 11.69921875 C21.07066406 12.45847656 21.03585937 13.21773437 21 14 C20.01 14 19.02 14 18 14 C18 10.7 18 7.4 18 4 C16.35 4.33 14.7 4.66 13 5 C12.67 7.97 12.34 10.94 12 14 C11.01 14 10.02 14 9 14 C8.67 10.7 8.34 7.4 8 4 C6.68 4.33 5.36 4.66 4 5 C3.67 7.97 3.34 10.94 3 14 C2.01 14 1.02 14 0 14 C0 9.38 0 4.76 0 0 Z " fill="#222635" transform="translate(962,536)"/>
<path d="M0 0 C1.875 1.25 1.875 1.25 3 3 C3.1875 5.6875 3.1875 5.6875 3 8 C-1.455 8.495 -1.455 8.495 -6 9 C-4.02 9 -2.04 9 0 9 C0 10.32 0 11.64 0 13 C-6.30818278 13.35706695 -6.30818278 13.35706695 -8.9375 12 C-10.65969311 8.75822473 -10.66174953 5.57642161 -10 2 C-7.06260649 -1.72823022 -4.31597041 -1.28560821 0 0 Z " fill="#202333" transform="translate(996,537)"/>
<path d="M0 0 C3.30776928 0.66155386 4.49309977 1.82413303 6.5 4.5 C6.5 5.82 6.5 7.14 6.5 8.5 C3.2 8.5 -0.1 8.5 -3.5 8.5 C-3.17 9.16 -2.84 9.82 -2.5 10.5 C-0.19 10.5 2.12 10.5 4.5 10.5 C4.83 11.49 5.16 12.48 5.5 13.5 C2.4167365 15.04163175 -0.10878099 14.79747535 -3.5 14.5 C-6.12541413 12.29803976 -6.4445448 10.88026421 -6.9375 7.5 C-6.5 4.5 -6.5 4.5 -4.8125 2.125 C-2.5 0.5 -2.5 0.5 0 0 Z " fill="#0F1324" transform="translate(926.5,535.5)"/>
<path d="M0 0 C0.99 0 1.98 0 3 0 C3.33 3.3 3.66 6.6 4 10 C5.32 10 6.64 10 8 10 C8.33 6.7 8.66 3.4 9 0 C9.99 0 10.98 0 12 0 C12.08114106 1.77007714 12.13925505 3.54122098 12.1875 5.3125 C12.22230469 6.29863281 12.25710938 7.28476562 12.29296875 8.30078125 C12 11 12 11 10.67578125 12.828125 C8.04519634 14.66769486 6.11004141 14.45354771 3 14 C0.83839961 11.80816743 0.05686284 10.50039296 -0.29296875 7.421875 C-0.25816406 6.54015625 -0.22335937 5.6584375 -0.1875 4.75 C-0.16042969 3.85796875 -0.13335938 2.9659375 -0.10546875 2.046875 C-0.07066406 1.37140625 -0.03585937 0.6959375 0 0 Z " fill="#1A1D2E" transform="translate(947,536)"/>
<path d="M0 0 C0.66 0.99 1.32 1.98 2 3 C-1.13349732 4.04449911 -1.98968256 3.93423645 -5 3 C-4.67 3.66 -4.34 4.32 -4 5 C-3.175 5.268125 -2.35 5.53625 -1.5 5.8125 C1 7 1 7 1.9375 9.5 C1.958125 10.325 1.97875 11.15 2 12 C0 14 0 14 -3.625 14.125 C-4.73875 14.08375 -5.8525 14.0425 -7 14 C-7 12.68 -7 11.36 -7 10 C-4.03 10.495 -4.03 10.495 -1 11 C-1 10.34 -1 9.68 -1 9 C-1.78375 8.87625 -2.5675 8.7525 -3.375 8.625 C-6 8 -6 8 -8 6 C-7.75 3.4375 -7.75 3.4375 -7 1 C-4.46578263 -0.26710868 -2.80561762 -0.28056176 0 0 Z " fill="#181C2C" transform="translate(943,536)"/>
<path d="M0 0 C2.97 0.99 5.94 1.98 9 3 C9 3.66 9 4.32 9 5 C8.05125 4.95875 7.1025 4.9175 6.125 4.875 C2.89755144 4.65026182 2.89755144 4.65026182 1 7 C0.34 7 -0.32 7 -1 7 C-1.33 6.34 -1.66 5.68 -2 5 C-4.31 5 -6.62 5 -9 5 C-9.33 4.01 -9.66 3.02 -10 2 C-6.7 2 -3.4 2 0 2 C0 1.34 0 0.68 0 0 Z " fill="#DEDEE1" transform="translate(933,542)"/>
<path d="M0 0 C-0.33 0.99 -0.66 1.98 -1 3 C-2.32 3 -3.64 3 -5 3 C-5.33 6.3 -5.66 9.6 -6 13 C-6.99 13 -7.98 13 -9 13 C-9 8.71 -9 4.42 -9 0 C-3.375 -1.125 -3.375 -1.125 0 0 Z " fill="#121627" transform="translate(919,537)"/>
<path d="M0 0 C4.75 0.75 4.75 0.75 7 3 C7.1953125 5.6015625 7.1953125 5.6015625 7.125 8.625 C7.10695313 9.62789062 7.08890625 10.63078125 7.0703125 11.6640625 C7.03550781 12.82035156 7.03550781 12.82035156 7 14 C6.01 14 5.02 14 4 14 C4 10.7 4 7.4 4 4 C2.35 3.67 0.7 3.34 -1 3 C-0.67 2.01 -0.34 1.02 0 0 Z " fill="#0E1223" transform="translate(976,536)"/>
<path d="M0 0 C1.99954746 -0.04254356 4.00041636 -0.04080783 6 0 C7 1 7 1 7.125 3.5 C7 6 7 6 6 7 C3.5 7.125 3.5 7.125 1 7 C0 6 0 6 -0.0625 2.9375 C-0.041875 1.968125 -0.02125 0.99875 0 0 Z " fill="#5245EE" transform="translate(1004,543)"/>
<path d="M0 0 C0.99 0.33 1.98 0.66 3 1 C2.67 4.96 2.34 8.92 2 13 C1.34 13 0.68 13 0 13 C0 8.71 0 4.42 0 0 Z " fill="#04081A" transform="translate(963,537)"/>
<path d="M0 0 C1.65 0.33 3.3 0.66 5 1 C5 1.66 5 2.32 5 3 C2.69 3 0.38 3 -2 3 C-1.34 2.01 -0.68 1.02 0 0 Z " fill="#EBEBEC" transform="translate(925,539)"/>
<path d="M0 0 C2.4375 0.375 2.4375 0.375 5 1 C5.33 1.66 5.66 2.32 6 3 C3.69 3 1.38 3 -1 3 C-0.67 2.01 -0.34 1.02 0 0 Z " fill="#EBEBEC" transform="translate(990,539)"/>
<path d="M0 0 C0.78375 0.04125 1.5675 0.0825 2.375 0.125 C1.75625 0.57875 1.1375 1.0325 0.5 1.5 C-1.68419833 3.09608919 -1.68419833 3.09608919 -3.625 5.125 C-4.615 5.455 -5.605 5.785 -6.625 6.125 C-3.85227273 0.18344156 -3.85227273 0.18344156 0 0 Z " fill="#393C4B" transform="translate(926.625,535.875)"/>
</svg>
